<?xml version="1.0" standalone="yes"?>

<svg version="1.1" viewBox="0.0 0.0 965.0 238.0" fill="none" stroke="none" stroke-linecap="square" stroke-miterlimit="10" xmlns="http://www.w3.org/2000/svg" xmlns:xlink="http://www.w3.org/1999/xlink"><clipPath id="p.0"><path d="m0 0l965.0 0l0 238.0l-965.0 0l0 -238.0z" clip-rule="nonzero"></path></clipPath><g clip-path="url(#p.0)"><path fill="#000000" fill-opacity="0.0" d="m0 0l965.46454 0l0 238.37007l-965.46454 0z" fill-rule="nonzero"></path><path fill="#cfe2f3" d="m106.54462 45.238846l240.78741 0l0 150.96063l-240.78741 0z" fill-rule="nonzero"></path><path stroke="#000000" stroke-width="2.0" stroke-linejoin="round" stroke-linecap="butt" d="m106.54462 45.238846l240.78741 0l0 150.96063l-240.78741 0z" fill-rule="nonzero"></path><path fill="#000000" fill-opacity="0.0" d="m106.54462 66.19948l240.78741 0l0 109.03937l-240.78741 0z" fill-rule="nonzero"></path><path fill="#000000" d="m167.76645 111.119156l0 -28.640625l10.796875 0q2.84375 0 4.359375 0.28125q2.109375 0.34375 3.53125 1.34375q1.421875 0.984375 2.28125 2.765625q0.875 1.765625 0.875 3.890625q0 3.65625 -2.328125 6.1875q-2.3125 2.53125 -8.390625 2.53125l-7.34375 0l0 11.640625l-3.78125 0zm3.78125 -15.015625l7.40625 0q3.671875 0 5.203125 -1.359375q1.546875 -1.375 1.546875 -3.859375q0 -1.796875 -0.90625 -3.078125q-0.90625 -1.28125 -2.390625 -1.6875q-0.953125 -0.25 -3.53125 -0.25l-7.328125 0l0 10.234375zm22.289062 23.0l-0.390625 -3.296875q1.15625 0.3125 2.015625 0.3125q1.171875 0 1.875 -0.390625q0.703125 -0.390625 1.140625 -1.09375q0.34375 -0.53125 1.078125 -2.609375q0.09375 -0.296875 0.3125 -0.859375l-7.875 -20.796875l3.796875 0l4.3125 12.015625q0.84375 2.28125 1.5 4.8125q0.609375 -2.421875 1.453125 -4.734375l4.4375 -12.09375l3.515625 0l-7.890625 21.109375q-1.28125 3.40625 -1.984375 4.703125q-0.9375 1.734375 -2.15625 2.546875q-1.203125 0.8125 -2.875 0.8125q-1.015625 0 -2.265625 -0.4375zm27.828125 -11.125l0.515625 3.09375q-1.484375 0.328125 -2.65625 0.328125q-1.921875 0 -2.984375 -0.609375q-1.046875 -0.609375 -1.484375 -1.59375q-0.421875 -0.984375 -0.421875 -4.15625l0 -11.9375l-2.578125 0l0 -2.734375l2.578125 0l0 -5.125l3.5 -2.109375l0 7.234375l3.53125 0l0 2.734375l-3.53125 0l0 12.140625q0 1.5 0.1875 1.9375q0.1875 0.421875 0.59375 0.671875q0.421875 0.25 1.203125 0.25q0.59375 0 1.546875 -0.125zm3.4414062 3.140625l0 -28.640625l3.515625 0l0 10.28125q2.453125 -2.859375 6.203125 -2.859375q2.3125 0 4.0 0.921875q1.703125 0.90625 2.4375 2.515625q0.734375 1.59375 0.734375 4.640625l0 13.140625l-3.515625 0l0 -13.140625q0 -2.640625 -1.140625 -3.84375q-1.140625 -1.203125 -3.234375 -1.203125q-1.5625 0 -2.9375 0.8125q-1.375 0.8125 -1.96875 2.203125q-0.578125 1.375 -0.578125 3.828125l0 11.34375l-3.515625 0zm20.933594 -10.375q0 -5.765625 3.203125 -8.53125q2.671875 -2.3125 6.53125 -2.3125q4.265625 0 6.984375 2.8125q2.71875 2.796875 2.71875 7.734375q0 4.015625 -1.203125 6.3125q-1.203125 2.28125 -3.5 3.5625q-2.296875 1.265625 -5.0 1.265625q-4.359375 0 -7.046875 -2.796875q-2.6875 -2.796875 -2.6875 -8.046875zm3.609375 0q0 3.984375 1.734375 5.96875q1.75 1.984375 4.390625 1.984375q2.609375 0 4.34375 -1.984375q1.75 -2.0 1.75 -6.078125q0 -3.859375 -1.75 -5.828125q-1.75 -1.984375 -4.34375 -1.984375q-2.640625 0 -4.390625 1.96875q-1.734375 1.96875 -1.734375 5.953125zm19.949219 10.375l0 -20.75l3.15625 0l0 2.953125q2.296875 -3.421875 6.609375 -3.421875q1.875 0 3.4375 0.6875q1.578125 0.671875 2.359375 1.765625q0.78125 1.09375 1.09375 2.59375q0.203125 0.96875 0.203125 3.421875l0 12.75l-3.515625 0l0 -12.625q0 -2.140625 -0.421875 -3.203125q-0.40625 -1.0625 -1.453125 -1.703125q-1.046875 -0.640625 -2.453125 -0.640625q-2.234375 0 -3.875 1.4375q-1.625 1.421875 -1.625 5.40625l0 11.328125l-3.515625 0z" fill-rule="nonzero"></path><path fill="#000000" d="m175.1063 159.11916l0 -20.75l3.140625 0l0 2.921875q0.984375 -1.53125 2.59375 -2.453125q1.625 -0.9375 3.703125 -0.9375q2.296875 0 3.765625 0.96875q1.484375 0.953125 2.09375 2.671875q2.453125 -3.640625 6.40625 -3.640625q3.078125 0 4.734375 1.71875q1.671875 1.703125 1.671875 5.265625l0 14.234375l-3.5 0l0 -13.0625q0 -2.109375 -0.34375 -3.03125q-0.34375 -0.9375 -1.25 -1.5q-0.890625 -0.578125 -2.09375 -0.578125q-2.1875 0 -3.640625 1.46875q-1.4375 1.453125 -1.4375 4.65625l0 12.046875l-3.515625 0l0 -13.484375q0 -2.34375 -0.859375 -3.515625q-0.859375 -1.171875 -2.8125 -1.171875q-1.484375 0 -2.75 0.78125q-1.265625 0.78125 -1.828125 2.296875q-0.5625 1.5 -0.5625 4.328125l0 10.765625l-3.515625 0zm32.007812 -10.375q0 -5.765625 3.203125 -8.53125q2.671875 -2.3125 6.53125 -2.3125q4.265625 0 6.984375 2.8125q2.71875 2.796875 2.71875 7.734375q0 4.015625 -1.203125 6.3125q-1.203125 2.28125 -3.5 3.5625q-2.296875 1.265625 -5.0 1.265625q-4.359375 0 -7.046875 -2.796875q-2.6875 -2.796875 -2.6875 -8.046875zm3.609375 0q0 3.984375 1.734375 5.96875q1.75 1.984375 4.390625 1.984375q2.609375 0 4.34375 -1.984375q1.75 -2.0 1.75 -6.078125q0 -3.859375 -1.75 -5.828125q-1.75 -1.984375 -4.34375 -1.984375q-2.640625 0 -4.390625 1.96875q-1.734375 1.96875 -1.734375 5.953125zm33.402344 10.375l0 -2.625q-1.96875 3.09375 -5.796875 3.09375q-2.484375 0 -4.5625 -1.359375q-2.078125 -1.375 -3.21875 -3.828125q-1.140625 -2.453125 -1.140625 -5.640625q0 -3.09375 1.03125 -5.625q1.03125 -2.53125 3.09375 -3.875q2.078125 -1.359375 4.640625 -1.359375q1.875 0 3.328125 0.796875q1.46875 0.796875 2.390625 2.0625l0 -10.28125l3.5 0l0 28.640625l-3.265625 0zm-11.109375 -10.359375q0 3.984375 1.671875 5.96875q1.6875 1.96875 3.96875 1.96875q2.3125 0 3.921875 -1.875q1.609375 -1.890625 1.609375 -5.765625q0 -4.25 -1.640625 -6.234375q-1.640625 -2.0 -4.046875 -2.0q-2.34375 0 -3.921875 1.921875q-1.5625 1.90625 -1.5625 6.015625zm34.10547 3.671875l3.625 0.453125q-0.859375 3.1875 -3.1875 4.953125q-2.3125 1.75 -5.9375 1.75q-4.546875 0 -7.21875 -2.796875q-2.65625 -2.8125 -2.65625 -7.875q0 -5.234375 2.6875 -8.125q2.703125 -2.890625 7.0 -2.890625q4.15625 0 6.796875 2.84375q2.640625 2.828125 2.640625 7.96875q0 0.3125 -0.03125 0.9375l-15.46875 0q0.203125 3.40625 1.9375 5.234375q1.734375 1.8125 4.34375 1.8125q1.921875 0 3.28125 -1.015625q1.375 -1.015625 2.1875 -3.25zm-11.546875 -5.671875l11.578125 0q-0.234375 -2.625 -1.328125 -3.9375q-1.671875 -2.03125 -4.359375 -2.03125q-2.421875 0 -4.078125 1.625q-1.640625 1.625 -1.8125 4.34375zm19.511719 12.359375l0 -28.640625l3.515625 0l0 28.640625l-3.515625 0z" fill-rule="nonzero"></path><path fill="#cfe2f3" d="m609.88055 45.238846l240.78741 0l0 150.96063l-240.78741 0z" fill-rule="nonzero"></path><path stroke="#000000" stroke-width="2.0" stroke-linejoin="round" stroke-linecap="butt" d="m609.88055 45.238846l240.78741 0l0 150.96063l-240.78741 0z" fill-rule="nonzero"></path><path fill="#000000" fill-opacity="0.0" d="m609.88055 68.608925l240.78741 0l0 104.22047l-240.78741 0z" fill-rule="nonzero"></path><path fill="#000000" d="m653.4774 135.11916l0 -28.640617l3.796875 0l0 11.765625l14.875 0l0 -11.765625l3.796875 0l0 28.640617l-3.796875 0l0 -13.499992l-14.875 0l0 13.499992l-3.796875 0zm36.058594 0l0 -25.249992l-9.4375 0l0 -3.390625l22.703125 0l0 3.390625l-9.484375 0l0 25.249992l-3.78125 0zm17.027344 0l0 -28.640617l5.703125 0l6.78125 20.28125q0.9375 2.8281174 1.359375 4.2343674q0.5 -1.5625 1.53125 -4.5937424l6.859375 -19.921875l5.09375 0l0 28.640617l-3.65625 0l0 -23.968742l-8.3125 23.968742l-3.421875 0l-8.28125 -24.374992l0 24.374992l-3.65625 0zm33.289062 0l0 -28.640617l3.78125 0l0 25.265617l14.109375 0l0 3.375l-17.890625 0zm52.296875 -28.640617l3.796875 0l0 16.546875q0 4.3125 -0.984375 6.8593674q-0.96875 2.53125 -3.53125 4.125q-2.546875 1.59375 -6.6875 1.59375q-4.015625 0 -6.578125 -1.375q-2.5625 -1.390625 -3.65625 -4.015625q-1.09375 -2.6406174 -1.09375 -7.1874924l0 -16.546875l3.796875 0l0 16.53125q0 3.734375 0.6875 5.4999924q0.703125 1.765625 2.390625 2.71875q1.6875 0.953125 4.125 0.953125q4.1875 0 5.953125 -1.890625q1.78125 -1.890625 1.78125 -7.2812424l0 -16.53125zm10.746094 28.640617l0 -28.640617l3.78125 0l0 28.640617l-3.78125 0z" fill-rule="nonzero"></path><path fill="#000000" fill-opacity="0.0" d="m347.33203 101.55111l262.55115 0" fill-rule="nonzero"></path><path stroke="#000000" stroke-width="2.0" stroke-linejoin="round" stroke-linecap="butt" d="m347.33203 101.55111l250.55115 0" fill-rule="evenodd"></path><path fill="#000000" stroke="#000000" stroke-width="2.0" stroke-linecap="butt" d="m597.8832 104.854576l9.076233 -3.3034668l-9.076233 -3.3034668z" fill-rule="evenodd"></path><path fill="#000000" fill-opacity="0.0" d="m347.33203 133.5511l262.55115 0" fill-rule="nonzero"></path><path stroke="#000000" stroke-width="2.0" stroke-linejoin="round" stroke-linecap="butt" d="m359.33203 133.55112l250.55115 0" fill-rule="evenodd"></path><path fill="#000000" stroke="#000000" stroke-width="2.0" stroke-linecap="butt" d="m359.33203 130.24765l-9.076202 3.3034668l9.076202 3.3034515z" fill-rule="evenodd"></path><path fill="#000000" fill-opacity="0.0" d="m415.6286 133.55118l142.55121 0l0 39.55905l-142.55121 0z" fill-rule="nonzero"></path><path fill="#000000" d="m430.91983 178.88118l4.09375 -0.5625q0.171875 3.9375 1.484375 5.390625q1.3125 1.453125 3.625 1.453125q1.71875 0 2.953125 -0.78125q1.25 -0.796875 1.71875 -2.140625q0.46875 -1.34375 0.46875 -4.296875l0 -23.671875l4.546875 0l0 23.40625q0 4.3125 -1.046875 6.6875q-1.046875 2.359375 -3.3125 3.609375q-2.25 1.25 -5.296875 1.25q-4.53125 0 -6.9375 -2.609375q-2.390625 -2.609375 -2.296875 -7.734375zm25.796875 -19.765625l0 -4.84375l4.21875 0l0 4.84375l-4.21875 0zm0 29.515625l0 -24.890625l4.21875 0l0 24.890625l-4.21875 0zm9.8671875 2.0625l4.109375 0.609375q0.25 1.90625 1.421875 2.765625q1.578125 1.171875 4.296875 1.171875q2.921875 0 4.515625 -1.171875q1.59375 -1.171875 2.15625 -3.28125q0.328125 -1.28125 0.3125 -5.421875q-2.765625 3.265625 -6.890625 3.265625q-5.140625 0 -7.953125 -3.703125q-2.8125 -3.703125 -2.8125 -8.890625q0 -3.5625 1.28125 -6.5625q1.296875 -3.015625 3.75 -4.65625q2.453125 -1.640625 5.75 -1.640625q4.40625 0 7.265625 3.5625l0 -3.0l3.890625 0l0 21.515625q0 5.8125 -1.1875 8.234375q-1.171875 2.4375 -3.75 3.84375q-2.5625 1.40625 -6.3125 1.40625q-4.453125 0 -7.203125 -2.015625q-2.734375 -2.0 -2.640625 -6.03125zm3.5 -14.953125q0 4.890625 1.9375 7.140625q1.953125 2.25 4.875 2.25q2.90625 0 4.875 -2.234375q1.96875 -2.234375 1.96875 -7.015625q0 -4.578125 -2.03125 -6.890625q-2.015625 -2.328125 -4.875 -2.328125q-2.8125 0 -4.78125 2.296875q-1.96875 2.28125 -1.96875 6.78125zm23.976562 12.890625l0 -24.890625l3.796875 0l0 3.53125q2.734375 -4.09375 7.921875 -4.09375q2.25 0 4.125 0.8125q1.890625 0.796875 2.8280945 2.109375q0.9375 1.3125 1.3125 3.125q0.234375 1.171875 0.234375 4.09375l0 15.3125l-4.2187195 0l0 -15.140625q0 -2.578125 -0.5 -3.859375q-0.484375 -1.28125 -1.734375 -2.03125q-1.25 -0.765625 -2.9375 -0.765625q-2.703125 0 -4.65625 1.71875q-1.953125 1.703125 -1.953125 6.484375l0 13.59375l-4.21875 0zm42.929657 -3.078125q-2.34375 2.0 -4.515625 2.828125q-2.15625 0.8125 -4.640625 0.8125q-4.109375 0 -6.3125 -2.0q-2.203125 -2.015625 -2.203125 -5.125q0 -1.828125 0.828125 -3.34375q0.84375 -1.515625 2.1875 -2.421875q1.34375 -0.921875 3.03125 -1.390625q1.25 -0.328125 3.75 -0.625q5.109375 -0.609375 7.53125 -1.453125q0.015625 -0.875 0.015625 -1.109375q0 -2.578125 -1.1875 -3.625q-1.625 -1.4375 -4.8125 -1.4375q-2.96875 0 -4.390625 1.046875q-1.421875 1.046875 -2.09375 3.6875l-4.125 -0.5625q0.5625 -2.640625 1.84375 -4.265625q1.296875 -1.640625 3.734375 -2.515625q2.4375 -0.875 5.640625 -0.875q3.1875 0 5.171875 0.75q2.0 0.75 2.9375 1.890625q0.9375 1.125 1.3125 2.859375q0.21875 1.078125 0.21875 3.890625l0 5.625q0 5.890625 0.265625 7.453125q0.265625 1.546875 1.0625 2.984375l-4.40625 0q-0.65625 -1.3125 -0.84375 -3.078125zm-0.34375 -9.421875q-2.296875 0.9375 -6.890625 1.59375q-2.609375 0.375 -3.6875 0.84375q-1.078125 0.46875 -1.671875 1.375q-0.578125 0.90625 -0.578125 2.0q0 1.6875 1.28125 2.8125q1.28125 1.125 3.734375 1.125q2.4375 0 4.328125 -1.0625q1.90625 -1.0625 2.796875 -2.921875q0.6875 -1.421875 0.6875 -4.21875l0 -1.546875z" fill-rule="nonzero"></path></g></svg>

